<?xml version="1.0" encoding="UTF-8"?>
<!-- Generator: visioncortex VTracer 0.6.3 -->
<svg version="1.1" xmlns="http://www.w3.org/2000/svg" width="1280" height="376">
<path d="M0 0 C422.4 0 844.8 0 1280 0 C1280 124.08 1280 248.16 1280 376 C857.6 376 435.2 376 0 376 C0 251.92 0 127.84 0 0 Z " fill="#E1E5E6" transform="translate(0,0)"/>
<path d="M0 0 C0.72 -0.01 1.44 -0.03 2.18 -0.04 C27.81 -0.4 54.42 1.34 73.98 20.27 C86.89 33.58 93.49 51.14 93.27 69.53 C93.05 76.62 92.39 88.87 86.98 94.27 C85.64 94.36 84.29 94.38 82.95 94.37 C82.14 94.37 81.33 94.36 80.5 94.36 C79.65 94.35 78.8 94.34 77.92 94.34 C77.07 94.33 76.21 94.33 75.33 94.32 C73.22 94.31 71.1 94.29 68.98 94.27 C67.82 90.77 68.51 88.97 69.44 85.49 C73.65 68.4 71.04 50.12 62.61 34.76 C61.16 32.51 59.63 30.39 57.98 28.27 C57.11 27.13 57.11 27.13 56.21 25.97 C44.97 12.35 27.24 5.94 9.98 4.27 C-7.76 3.14 -24.29 4.71 -41.29 9.85 C-42.18 10.11 -43.07 10.38 -43.98 10.66 C-44.65 10.86 -45.32 11.06 -46.02 11.27 C-46.01 12.3 -46.01 13.32 -46.01 14.38 C-45.99 24.02 -45.97 33.66 -45.96 43.3 C-45.96 48.25 -45.95 53.21 -45.94 58.16 C-45.93 62.94 -45.92 67.72 -45.92 72.5 C-45.92 74.33 -45.92 76.15 -45.91 77.98 C-45.9 80.53 -45.9 83.08 -45.9 85.63 C-45.9 86.4 -45.89 87.16 -45.89 87.95 C-45.9 93.16 -45.9 93.16 -47.02 94.27 C-48.42 94.37 -49.83 94.4 -51.23 94.41 C-52.51 94.41 -52.51 94.41 -53.81 94.41 C-54.7 94.41 -55.6 94.4 -56.52 94.4 C-57.41 94.4 -58.3 94.41 -59.22 94.41 C-60.07 94.41 -60.92 94.41 -61.8 94.41 C-62.58 94.41 -63.37 94.4 -64.17 94.4 C-66.02 94.27 -66.02 94.27 -67.02 93.27 C-67.13 91.9 -67.17 90.52 -67.19 89.15 C-67.2 88.27 -67.22 87.39 -67.23 86.48 C-67.24 85.52 -67.25 84.55 -67.26 83.56 C-67.29 81.51 -67.33 79.46 -67.36 77.41 C-67.41 74.18 -67.45 70.96 -67.49 67.73 C-67.63 57.06 -67.82 46.42 -68.86 35.8 C-68.93 35.06 -69 34.33 -69.07 33.57 C-69.95 25.67 -72.21 16.04 -78.02 10.27 C-80.64 9.13 -83.11 8.43 -85.91 7.84 C-86.95 7.56 -86.95 7.56 -88.02 7.27 C-88.35 6.61 -88.68 5.95 -89.02 5.27 C-83.27 4.47 -77.66 4.09 -71.86 3.99 C-71 3.97 -70.15 3.96 -69.26 3.94 C-66.53 3.88 -63.81 3.83 -61.08 3.77 C-57.51 3.7 -53.93 3.63 -50.36 3.55 C-49.49 3.54 -48.62 3.52 -47.73 3.5 C-41.25 3.35 -34.8 3.02 -28.34 2.52 C-25.03 2.28 -22.18 2.19 -19.02 3.27 C-19.02 2.61 -19.02 1.95 -19.02 1.27 C-18.23 1.29 -17.45 1.3 -16.64 1.31 C-15.63 1.32 -14.62 1.33 -13.58 1.34 C-12.06 1.35 -12.06 1.35 -10.52 1.37 C-7.03 1.23 -3.85 0.06 0 0 Z " fill="#000405" transform="translate(493.015625,83.7265625)"/>
<path d="M0 0 C8.52 8.12 15.61 18.72 16.11 30.71 C16.13 32.41 16.14 34.11 16.12 35.81 C16.12 36.7 16.11 37.59 16.11 38.51 C15.99 44.78 15.48 50.25 12.81 56 C12.42 56.87 12.03 57.75 11.63 58.65 C7.99 66.01 3.45 73.05 -3.19 78 C-8.48 79.29 -13.44 79.06 -18.81 78.69 C-20.21 78.63 -21.61 78.58 -23.01 78.54 C-26.41 78.41 -29.8 78.23 -33.19 78 C-29.59 74.36 -25.88 71 -21.94 67.75 C-5.89 54.5 -5.89 54.5 1.15 35.55 C1.29 22.24 -1.59 12.28 -10.19 2 C-10.71 1.35 -11.24 0.7 -11.79 0.04 C-23.12 -11.77 -43.87 -12.6 -59.19 -13 C-78.34 -13.09 -96.1 -4 -109.51 9.23 C-127.03 27.37 -134.78 49.84 -140.62 73.9 C-141.19 76 -141.19 76 -142.19 78 C-148.79 78 -155.39 78 -162.19 78 C-163.52 74 -162.37 71.2 -161.19 67.31 C-160.96 66.56 -160.73 65.81 -160.5 65.03 C-156.68 52.79 -151.54 41.54 -144.19 31 C-143.62 30.13 -143.05 29.27 -142.46 28.38 C-132.13 13.25 -117.99 0.43 -101.19 -7 C-100.04 -7.52 -100.04 -7.52 -98.87 -8.05 C-68.86 -20.87 -26.17 -21.73 0 0 Z " fill="#000405" transform="translate(861.1875,100)"/>
<path d="M0 0 C0.77 -0.05 1.54 -0.09 2.33 -0.14 C4.57 -0.18 6.45 -0.12 8.62 0.44 C12.19 4.34 13.99 9.27 16 14.12 C20.88 25.52 26.35 35.1 34.62 44.44 C35.45 45.39 35.45 45.39 36.3 46.37 C48.05 59.02 67.07 69.81 84.38 70.75 C107.07 71.5 127.35 65.46 144.36 49.89 C148.18 45.76 151.3 41.16 154.46 36.51 C156.09 34.2 157.54 32.3 159.62 30.44 C160.62 31.44 160.62 31.44 160.74 34.49 C160.74 35.84 160.73 37.19 160.72 38.54 C160.72 39.6 160.72 39.6 160.72 40.68 C160.71 42.96 160.7 45.23 160.69 47.5 C160.68 49.04 160.68 50.57 160.67 52.11 C160.66 55.89 160.65 59.66 160.62 63.44 C125.95 75.18 82.43 81.15 47.89 66.07 C36.9 60.57 26.78 53.64 17.62 45.44 C16.87 44.78 16.12 44.12 15.34 43.44 C3.98 32.86 -4.38 18.65 -10.38 4.44 C-10.38 3.45 -10.38 2.46 -10.38 1.44 C-7.11 -0.19 -3.58 0.09 0 0 Z " fill="#000405" transform="translate(714.375,262.5625)"/>
<path d="M0 0 C7.59 -1.4 15.56 -2.51 23 0 C28.92 4.92 32.1 12.34 35.49 19.1 C37.67 23.29 40.25 27.11 43 30.94 C43.48 31.62 43.96 32.29 44.46 32.99 C54.3 46.57 65.8 59.54 82 65 C83.2 65.41 84.39 65.82 85.62 66.25 C86.8 66.62 86.8 66.62 88 67 C88 67.66 88 68.32 88 69 C82.63 69.15 77.26 69.26 71.89 69.33 C70.06 69.36 68.24 69.4 66.42 69.45 C46.59 70.01 46.59 70.01 39 63 C37.01 61.08 35.59 59.28 33.94 57 C33.53 56.44 33.12 55.88 32.7 55.31 C29.02 50.21 25.63 44.93 22.29 39.61 C19.89 35.8 17.39 32.05 14.88 28.31 C11.33 23.02 7.86 17.7 4.48 12.3 C3.21 10.33 1.88 8.45 0.5 6.56 C-1 4 -1 4 -0.59 1.84 C-0.4 1.23 -0.2 0.63 0 0 Z " fill="#000405" transform="translate(513,263)"/>
<path d="M0 0 C0.79 -0.01 1.57 -0.02 2.38 -0.04 C4.42 -0.04 6.46 0.07 8.5 0.19 C11.36 3.05 10.79 5.1 10.84 9.11 C10.86 9.81 10.87 10.5 10.89 11.22 C10.93 13.46 10.97 15.7 11 17.94 C10.23 40.16 10.23 40.16 17.92 59.77 C21.18 62.57 24.54 64.88 28.62 66.19 C31.5 67.19 31.5 67.19 32.5 69.19 C11.38 69.19 -9.74 69.19 -31.5 69.19 C-31.83 68.2 -32.16 67.21 -32.5 66.19 C-31.65 66.08 -31.65 66.08 -30.78 65.96 C-25.83 65.12 -21.71 63.97 -18 60.47 C-9.99 48.3 -11.34 29.31 -10.94 15.5 C-10.89 14.1 -10.85 12.71 -10.81 11.31 C-10.7 7.94 -10.6 4.56 -10.5 1.19 C-7.22 -0.45 -3.6 0 0 0 Z " fill="#000405" transform="translate(436.5,262.8125)"/>
<path d="M0 0 C3.51 3.05 5.19 5.51 6.12 10.06 C6 14 6 14 4.12 17.06 C0.33 19.42 -1.53 19.25 -5.82 18.59 C-8.92 17.75 -11.31 16.88 -13.31 14.31 C-14.36 10.8 -13.99 8.52 -13 5 C-9.02 0.54 -5.97 -1.19 0 0 Z " fill="#E2E6E7" transform="translate(640,232)"/>
<path d="M0 0 C8.68 -0.61 8.68 -0.61 13 1.38 C15.97 5.27 17.04 9.11 17 14 C15.31 17.19 15.31 17.19 12 19 C8.24 19.14 4.68 18.78 1 18 C0 17 0 17 -0.1 13.18 C-0.09 11.6 -0.08 10.02 -0.06 8.44 C-0.06 7.63 -0.05 6.82 -0.05 5.99 C-0.04 4 -0.02 2 0 0 Z " fill="#E1E5E6" transform="translate(833,186)"/>
<path d="M0 0 C1.06 -0.04 2.12 -0.07 3.21 -0.11 C6.88 0.41 7.97 1.4 10.19 4.31 C11.12 7.81 11.12 7.81 11.19 11.31 C10.21 12.66 9.21 13.99 8.19 15.31 C8.41 18.5 8.41 18.5 9.19 21.31 C10.18 21.64 11.17 21.97 12.19 22.31 C10.87 22.31 9.55 22.31 8.19 22.31 C8.19 21.65 8.19 20.99 8.19 20.31 C7.53 20.31 6.87 20.31 6.19 20.31 C5.53 18.99 4.87 17.67 4.19 16.31 C1.55 16.31 -1.09 16.31 -3.81 16.31 C-3.81 18.29 -3.81 20.27 -3.81 22.31 C-4.47 22.31 -5.13 22.31 -5.81 22.31 C-7.14 17.35 -6.9 12.4 -6.81 7.31 C-6.15 7.31 -5.49 7.31 -4.81 7.31 C-4.81 5.66 -4.81 4.01 -4.81 2.31 C-5.47 1.98 -6.13 1.65 -6.81 1.31 C-5.01 -0.49 -2.43 0.06 0 0 Z " fill="#040809" transform="translate(583.8125,183.6875)"/>
<path d="M0 0 C0.99 0.33 1.98 0.66 3 1 C3 1.82 3 1.82 2.99 2.66 C2.93 16.91 3.13 31.13 3.5 45.38 C3.82 57.92 4.08 70.45 4 83 C3.34 83 2.68 83 2 83 C0.77 80.55 0.84 78.88 0.79 76.14 C0.77 75.12 0.75 74.1 0.73 73.05 C0.72 71.94 0.7 70.83 0.68 69.69 C0.66 68.53 0.64 67.37 0.62 66.18 C0.58 63.72 0.54 61.25 0.5 58.78 C0.44 55.1 0.37 51.42 0.31 47.74 C0.03 31.82 -0.06 15.92 0 0 Z " fill="#000405" transform="translate(638,95)"/>
<path d="M0 0 C0.66 0 1.32 0 2 0 C3.1 14.15 3.32 28.31 3.56 42.5 C3.61 44.88 3.65 47.27 3.69 49.65 C3.8 55.43 3.9 61.22 4 67 C2.68 66.34 1.36 65.68 0 65 C0 43.55 0 22.1 0 0 Z " fill="#000405" transform="translate(640,264)"/>
<path d="M0 0 C3.66 4.1 5.66 8.3 7.75 13.31 C8.07 14.05 8.38 14.79 8.71 15.56 C9.48 17.37 10.24 19.18 11 21 C10.01 21 9.02 21 8 21 C7.34 20.01 6.68 19.02 6 18 C3.1 17.64 3.1 17.64 -0.12 17.81 C-1.22 17.84 -2.32 17.87 -3.45 17.89 C-4.71 17.95 -4.71 17.95 -6 18 C-6.66 19.32 -7.32 20.64 -8 22 C-8.66 21.67 -9.32 21.34 -10 21 C-9 18 -8 15 -7 12 C-6.34 12 -5.68 12 -5 12 C-3.97 9.06 -3.05 6.26 -2.5 3.19 C-2.25 2.1 -2.25 2.1 -2 1 C-1.34 0.67 -0.68 0.34 0 0 Z " fill="#040809" transform="translate(619,184)"/>
<path d="M0 0 C3.69 3.19 5.46 6.68 7.25 11.12 C7.52 11.76 7.79 12.39 8.06 13.04 C10 17.7 10 17.7 10 20 C9.01 19.67 8.02 19.34 7 19 C7 18.34 7 17.68 7 17 C2.71 17 -1.58 17 -6 17 C-6.33 18.65 -6.66 20.3 -7 22 C-7.66 22 -8.32 22 -9 22 C-8.25 15.38 -8.25 15.38 -6 12 C-5.34 12 -4.68 12 -4 12 C-3.88 10.7 -3.75 9.4 -3.62 8.06 C-3.41 5.85 -3.41 5.85 -3 4 C-2.34 3.67 -1.68 3.34 -1 3 C-0.67 2.01 -0.34 1.02 0 0 Z " fill="#0C1011" transform="translate(512,230)"/>
<path d="M0 0 C0.66 0 1.32 0 2 0 C3.91 2.28 5.72 4.57 7.5 6.94 C8.49 8.24 9.48 9.54 10.47 10.84 C11.13 11.71 11.13 11.71 11.79 12.6 C12.97 14.14 12.97 14.14 15 15 C15.33 10.71 15.66 6.42 16 2 C16.99 1.67 17.98 1.34 19 1 C19 7.93 19 14.86 19 22 C14.12 20.05 13.27 19.58 10.44 15.62 C8.09 12.38 5.89 9.89 3 7 C2.67 11.95 2.34 16.9 2 22 C1.34 22 0.68 22 0 22 C0.01 20.9 0.02 19.81 0.04 18.68 C0.04 17.22 0.05 15.77 0.06 14.31 C0.07 13.59 0.08 12.87 0.09 12.13 C0.11 8.27 -0.2 4.77 -1 1 C-0.67 0.67 -0.34 0.34 0 0 Z " fill="#010506" transform="translate(664,230)"/>
<path d="M0 0 C0.66 0.33 1.32 0.66 2 1 C2.59 3.65 2.74 6.29 3 9 C7.29 9.33 11.58 9.66 16 10 C16 6.7 16 3.4 16 0 C19 3 19 3 19.34 4.9 C19.32 5.6 19.31 6.29 19.29 7.01 C19.28 7.77 19.27 8.53 19.26 9.31 C19.24 10.09 19.21 10.88 19.19 11.69 C19.17 12.88 19.17 12.88 19.15 14.1 C19.11 16.07 19.06 18.03 19 20 C18.01 20 17.02 20 16 20 C15.34 17.69 14.68 15.38 14 13 C10.37 13 6.74 13 3 13 C2.67 15.97 2.34 18.94 2 22 C1.01 21.67 0.02 21.34 -1 21 C-1.03 17.88 -1.05 14.75 -1.06 11.62 C-1.07 10.74 -1.08 9.85 -1.09 8.93 C-1.09 8.08 -1.09 7.23 -1.1 6.35 C-1.1 5.57 -1.11 4.78 -1.11 3.97 C-1 2 -1 2 0 0 Z " fill="#090C0D" transform="translate(458,184)"/>
<path d="M0 0 C2.06 -0.04 4.12 -0.08 6.25 -0.12 C7.99 -0.16 7.99 -0.16 9.77 -0.2 C12.88 -0.01 14.45 0.28 17 2 C19.77 5.24 21.28 7.82 21.5 12.06 C20.94 16.48 20.29 18.06 17 21 C12.63 23.04 8.79 23.35 4 23 C2.68 22.34 1.36 21.68 0 21 C0 14.07 0 7.14 0 0 Z M2 2 C1.97 4.81 1.95 7.62 1.94 10.44 C1.93 11.24 1.92 12.04 1.91 12.87 C1.9 14.91 1.95 16.96 2 19 C4.2 21.2 8.29 20.88 11.25 21.11 C14.23 21.2 14.23 21.2 17.31 19.19 C19.5 15.06 19.11 12.74 17.91 8.32 C16.54 4.83 15.43 3.57 12 2 C8.64 1.7 5.37 1.76 2 2 Z " fill="#030708" transform="translate(831,184)"/>
<path d="M0 0 C1.94 -0.05 3.87 -0.09 5.81 -0.12 C6.89 -0.15 7.97 -0.17 9.08 -0.2 C12 0 12 0 15 2 C10.71 2 6.42 2 2 2 C2.33 4.31 2.66 6.62 3 9 C6.63 9.66 10.26 10.32 14 11 C14 11.33 14 11.66 14 12 C10.37 12 6.74 12 3 12 C3 14.31 3 16.62 3 19 C3.7 19.05 4.4 19.1 5.12 19.15 C6.03 19.22 6.94 19.3 7.88 19.38 C8.78 19.44 9.68 19.51 10.62 19.59 C13 20 13 20 15 22 C13.28 23.72 11.03 23.17 8.69 23.19 C7.72 23.2 6.76 23.22 5.76 23.23 C2.95 23 1.44 22.32 -1 21 C-1.03 17.88 -1.05 14.75 -1.06 11.62 C-1.07 10.74 -1.08 9.85 -1.09 8.93 C-1.09 8.08 -1.09 7.23 -1.1 6.35 C-1.1 5.57 -1.11 4.78 -1.11 3.97 C-1 2 -1 2 0 0 Z " fill="#080C0D" transform="translate(791,230)"/>
<path d="M0 0 C0.66 0.33 1.32 0.66 2 1 C2.2 4.12 2.38 7.25 2.56 10.38 C2.62 11.26 2.67 12.15 2.73 13.07 C2.78 13.92 2.83 14.77 2.88 15.65 C2.93 16.43 2.97 17.22 3.02 18.03 C3 20 3 20 2 22 C1.34 22 0.68 22 0 22 C-0.23 19.95 -0.46 17.9 -0.68 15.85 C-0.82 13.99 -0.82 13.99 -2 13 C-3.85 12.77 -5.7 12.59 -7.56 12.44 C-8.57 12.35 -9.59 12.27 -10.63 12.18 C-11.41 12.12 -12.19 12.06 -13 12 C-13.33 15.3 -13.66 18.6 -14 22 C-14.66 22 -15.32 22 -16 22 C-17.15 19.7 -17.12 18.42 -17.1 15.87 C-17.09 15.06 -17.09 14.26 -17.09 13.43 C-17.08 12.58 -17.07 11.74 -17.06 10.88 C-17.06 10.03 -17.05 9.18 -17.05 8.3 C-17.04 6.2 -17.02 4.1 -17 2 C-16.01 1.67 -15.02 1.34 -14 1 C-13.67 3.64 -13.34 6.28 -13 9 C-8.71 9.33 -4.42 9.66 0 10 C0 6.7 0 3.4 0 0 Z " fill="#090D0E" transform="translate(761,184)"/>
<path d="M0 0 C1.45 -0.02 1.45 -0.02 2.93 -0.04 C5.69 0.19 5.69 0.19 9.69 2.19 C3.75 2.68 3.75 2.68 -2.31 3.19 C-2.64 4.84 -2.97 6.49 -3.31 8.19 C-1.58 9.92 0.89 9.84 3.25 10.25 C4.77 10.51 4.77 10.51 6.32 10.79 C7.1 10.92 7.88 11.05 8.69 11.19 C8.69 11.52 8.69 11.85 8.69 12.19 C5.06 12.52 1.43 12.85 -2.31 13.19 C-2.64 14.84 -2.97 16.49 -3.31 18.19 C-1.43 20.07 1.71 19.88 4.25 20.25 C5.45 20.43 6.65 20.6 7.88 20.79 C8.81 20.92 9.73 21.05 10.69 21.19 C6.97 23.67 5.44 23.28 1.06 22.88 C-0.11 22.78 -1.27 22.68 -2.48 22.57 C-5.31 22.19 -5.31 22.19 -6.31 21.19 C-6.41 19.71 -6.44 18.23 -6.45 16.75 C-6.45 15.86 -6.45 14.96 -6.45 14.04 C-6.44 12.63 -6.44 12.63 -6.44 11.19 C-6.44 10.25 -6.45 9.31 -6.45 8.34 C-6.45 7.44 -6.45 6.55 -6.45 5.62 C-6.44 4.39 -6.44 4.39 -6.44 3.12 C-6.17 -0.89 -3.4 0.02 0 0 Z " fill="#0A0E0F" transform="translate(500.3125,183.8125)"/>
<path d="M0 0 C1.46 -0.03 2.92 -0.05 4.38 -0.06 C5.19 -0.07 6 -0.09 6.84 -0.1 C9 0 9 0 11 1 C11.33 1.99 11.66 2.98 12 4 C12.66 4.33 13.32 4.66 14 5 C13.4 7.02 12.73 9.02 12 11 C8.98 12.51 6.33 12.18 3 12 C2.01 11.34 1.02 10.68 0 10 C-0.29 7.62 -0.29 7.62 -0.19 4.88 C-0.16 3.96 -0.13 3.05 -0.11 2.12 C-0.07 1.42 -0.04 0.72 0 0 Z " fill="#DFE3E4" transform="translate(580,186)"/>
<path d="M0 0 C1.26 -0.02 2.52 -0.04 3.81 -0.06 C4.52 -0.07 5.23 -0.09 5.96 -0.1 C8 0 8 0 11 1 C14.9 5.34 15.71 9 15.44 14.66 C15 17 15 17 13 20.06 C9.28 22.46 6.42 23.3 2 23 C-2.13 21.49 -5.45 19.62 -8 16 C-8.33 13.24 -8.19 10.79 -8 8 C-7.34 8 -6.68 8 -6 8 C-5.75 7.38 -5.5 6.76 -5.25 6.12 C-3.79 3.65 -2.62 3.05 0 2 C0 1.34 0 0.68 0 0 Z M-5 7 C-5.99 10.52 -6.36 12.8 -5.31 16.31 C-2.86 19.47 0.6 20.35 4.44 20.94 C8.1 21.26 8.83 21.1 12.12 19.06 C14.16 15.74 14.49 13.83 13.7 10 C12.42 6.35 10.96 4.58 8 2 C2.03 0.81 -1.02 2.54 -5 7 Z " fill="#010506" transform="translate(632,230)"/>
<path d="M0 0 C4.32 0.05 4.32 0.05 6.62 2 C7.68 4.44 8.26 6.68 8.62 9.31 C6.75 11.26 5.4 12.29 2.65 12.36 C-2.94 11.75 -2.94 11.75 -5.38 9.31 C-5.7 6.6 -5.51 4.06 -5.38 1.31 C-3.8 -0.27 -2.18 0.07 0 0 Z " fill="#E2E6E7" transform="translate(652.375,185.6875)"/>
<path d="M0 0 C0.98 0 1.96 0.01 2.98 0.01 C4.44 0 4.44 0 5.94 0 C8.6 0.13 8.6 0.13 11.6 1.13 C13.68 4.24 13.9 5.13 13.91 8.7 C13.94 9.87 13.94 9.87 13.96 11.07 C13.84 11.75 13.73 12.43 13.6 13.13 C12.61 13.79 11.62 14.45 10.6 15.13 C10.93 16.78 11.26 18.43 11.6 20.13 C10.94 20.13 10.28 20.13 9.6 20.13 C9.01 19.17 9.01 19.17 8.41 18.2 C5.82 15.24 3.4 15.42 -0.4 15.13 C-0.73 17.44 -1.06 19.75 -1.4 22.13 C-3.4 20.13 -3.4 20.13 -3.64 18.18 C-3.64 17.4 -3.63 16.62 -3.63 15.82 C-3.63 14.97 -3.63 14.12 -3.62 13.25 C-3.61 12.37 -3.6 11.48 -3.59 10.57 C-3.59 9.68 -3.58 8.79 -3.58 7.88 C-3.53 0.2 -3.53 0.2 0 0 Z M-1.4 3.13 C-1.63 7.15 -1.63 7.15 -1.4 11.13 C1.36 13.89 3.69 13.88 7.47 14.25 C9.81 14.35 9.81 14.35 11.66 12.2 C11.97 11.51 12.28 10.83 12.6 10.13 C11.08 5.83 11.08 5.83 8.6 2.13 C7.1 2.03 5.6 2 4.1 2.01 C3.29 2.01 2.47 2 1.63 2 C-0.39 1.91 -0.39 1.91 -1.4 3.13 Z " fill="#040809" transform="translate(648.3984375,183.8671875)"/>
<path d="M0 0 C11.12 -0.13 11.12 -0.13 16 1 C16 1.33 16 1.66 16 2 C11.38 2.33 6.76 2.66 2 3 C2.66 4.98 3.32 6.96 4 9 C7.3 9.66 10.6 10.32 14 11 C14 11.33 14 11.66 14 12 C10.7 12.33 7.4 12.66 4 13 C3.62 14.66 3.29 16.32 3 18 C4.81 19.81 7.61 19.68 10.06 20.06 C11.72 20.33 11.72 20.33 13.41 20.6 C14.26 20.73 15.12 20.86 16 21 C16 21.33 16 21.66 16 22 C13.52 22.03 11.04 22.05 8.56 22.06 C7.86 22.07 7.15 22.08 6.42 22.09 C4.61 22.1 2.81 22.05 1 22 C0 21 0 21 -0.11 18.96 C-0.11 18.08 -0.1 17.21 -0.1 16.31 C-0.09 15.36 -0.09 14.42 -0.09 13.45 C-0.08 12.45 -0.07 11.46 -0.06 10.44 C-0.06 9.44 -0.05 8.44 -0.05 7.42 C-0.04 4.94 -0.02 2.47 0 0 Z " fill="#0F1213" transform="translate(679,184)"/>
<path d="M0 0 C1.94 -0.05 3.87 -0.09 5.81 -0.12 C6.89 -0.15 7.97 -0.17 9.08 -0.2 C12 0 12 0 15 2 C9.06 2.5 9.06 2.5 3 3 C3 4.98 3 6.96 3 9 C6.63 9.66 10.26 10.32 14 11 C14 11.33 14 11.66 14 12 C8.06 12.5 8.06 12.5 2 13 C2.33 14.98 2.66 16.96 3 19 C7.29 19.66 11.58 20.32 16 21 C14 23 14 23 11.5 23.27 C10.05 23.26 10.05 23.26 8.56 23.25 C7.11 23.26 7.11 23.26 5.63 23.27 C3 23 3 23 0 21 C-0.34 18.85 -0.34 18.85 -0.29 16.21 C-0.28 14.8 -0.28 14.8 -0.26 13.36 C-0.24 12.37 -0.21 11.39 -0.19 10.38 C-0.17 9.38 -0.16 8.39 -0.15 7.37 C-0.11 4.91 -0.06 2.46 0 0 Z " fill="#151819" transform="translate(527,184)"/>
<path d="M0 0 C0.66 0.33 1.32 0.66 2 1 C1.96 1.95 1.92 2.9 1.88 3.88 C1.65 7.1 1.65 7.1 4 9 C7.12 9.46 7.12 9.46 10.62 9.62 C11.81 9.7 13 9.77 14.23 9.85 C15.14 9.9 16.06 9.95 17 10 C16.67 9.34 16.34 8.68 16 8 C15.96 6 15.96 4 16 2 C16.99 1.67 17.98 1.34 19 1 C19 6.94 19 12.88 19 19 C18.34 19.33 17.68 19.66 17 20 C16.34 17.69 15.68 15.38 15 13 C11.37 13 7.74 13 4 13 C1.88 17.41 1.88 17.41 2 20 C1.34 20 0.68 20 0 20 C-0.19 17.23 -0.38 14.46 -0.56 11.69 C-0.62 10.9 -0.67 10.12 -0.73 9.31 C-0.78 8.55 -0.83 7.79 -0.88 7.01 C-0.93 6.32 -0.97 5.62 -1.02 4.9 C-1 3 -1 3 0 0 Z " fill="#0D1011" transform="translate(569,230)"/>
<path d="M0 0 C0.33 0 0.66 0 1 0 C1 6.93 1 13.86 1 21 C-1 17 -1 17 -0.62 14.75 C-0.42 14.17 -0.21 13.59 0 13 C-3.16 11.95 -5.87 11.69 -9.19 11.44 C-10.27 11.35 -11.36 11.27 -12.48 11.18 C-13.31 11.12 -14.14 11.06 -15 11 C-15 14.3 -15 17.6 -15 21 C-15.66 21 -16.32 21 -17 21 C-18.06 16.72 -18.12 12.57 -18.06 8.19 C-18.06 7.49 -18.05 6.8 -18.05 6.09 C-18.04 4.39 -18.02 2.7 -18 1 C-17.01 1 -16.02 1 -15 1 C-14.67 3.31 -14.34 5.62 -14 8 C-9.71 8.33 -5.42 8.66 -1 9 C-0.67 6.03 -0.34 3.06 0 0 Z " fill="#0A0E0F" transform="translate(718,231)"/>
<path d="M0 0 C1.75 1.52 1.75 1.52 3 3 C2.06 2.98 2.06 2.98 1.1 2.96 C-0.12 2.95 -0.12 2.95 -1.38 2.94 C-2.59 2.92 -2.59 2.92 -3.84 2.9 C-6.05 2.86 -6.05 2.86 -8 4 C-8.65 6.02 -8.65 6.02 -9 8 C-8.31 8.18 -7.63 8.36 -6.92 8.55 C-6.02 8.8 -5.12 9.05 -4.19 9.31 C-3.29 9.56 -2.4 9.8 -1.48 10.05 C1.1 11.04 2.34 11.82 4 14 C4.5 17 4.5 17 4 20 C2.06 21.94 2.06 21.94 -1 23 C-4.06 22.94 -7 22.54 -10 22 C-10.33 21.01 -10.66 20.02 -11 19 C-7.04 19.33 -3.08 19.66 1 20 C1.21 16.11 1.21 16.11 0 13 C-1.58 12.88 -1.58 12.88 -3.19 12.75 C-7.27 11.95 -9.01 10.81 -12 8 C-11.65 5.44 -11.25 3.42 -9.94 1.19 C-6.88 -0.69 -3.49 -0.72 0 0 Z " fill="#090D0E" transform="translate(549,230)"/>
<path d="M0 0 C0.66 0 1.32 0 2 0 C2.72 1.61 2.72 1.61 3.46 3.25 C4.1 4.64 4.74 6.04 5.38 7.44 C5.69 8.14 6.01 8.85 6.34 9.58 C7.89 13.47 7.89 13.47 11 16 C11 16.66 11 17.32 11 18 C11.66 18 12.32 18 13 18 C13.34 16.86 13.34 16.86 13.69 15.69 C15.48 10.65 17.74 5.85 20 1 C21.17 4.52 20.84 5 19.35 8.23 C18.98 9.03 18.62 9.84 18.24 10.66 C17.66 11.91 17.66 11.91 17.06 13.19 C16.68 14.03 16.29 14.88 15.89 15.75 C14.94 17.84 13.97 19.92 13 22 C11.12 21.68 11.12 21.68 9 21 C7.43 18.66 6.22 16.52 5 14 C4.55 13.07 4.1 12.15 3.64 11.2 C0 3.47 0 3.47 0 0 Z " fill="#030708" transform="translate(754,230)"/>
<path d="M0 0 C0.33 0.66 0.66 1.32 1 2 C1.66 2 2.32 2 3 2 C3.89 10.69 4.12 19.27 4 28 C2.68 27.34 1.36 26.68 0 26 C0 17.42 0 8.84 0 0 Z " fill="#4B4C4D" transform="translate(640,303)"/>
<path d="M0 0 C2.06 -0.03 4.12 -0.05 6.19 -0.06 C7.34 -0.07 8.48 -0.09 9.67 -0.1 C12.59 -0.01 15.16 0.32 18 1 C18 1.33 18 1.66 18 2 C15.36 2.33 12.72 2.66 10 3 C10 9.27 10 15.54 10 22 C9.34 22 8.68 22 8 22 C5.62 18.3 5.79 15.07 5.88 10.75 C5.89 9.49 5.91 8.22 5.93 6.92 C5.95 5.96 5.98 4.99 6 4 C4.02 3.34 2.04 2.68 0 2 C0 1.34 0 0.68 0 0 Z " fill="#26292A" transform="translate(426,184)"/>
<path d="M0 0 C0.99 0.33 1.98 0.66 3 1 C3.11 13.71 2.93 26.32 2 39 C1.67 39 1.34 39 1 39 C-0.47 26.05 -0.09 13.01 0 0 Z " fill="#494A4B" transform="translate(638,95)"/>
<path d="M0 0 C1.51 0.02 1.51 0.02 3.06 0.04 C4.07 0.04 5.08 0.05 6.12 0.06 C7.3 0.08 7.3 0.08 8.5 0.1 C8.83 0.76 9.16 1.42 9.5 2.1 C5.87 2.43 2.24 2.76 -1.5 3.1 C-0.51 5.74 0.48 8.38 1.5 11.1 C0.84 11.1 0.18 11.1 -0.5 11.1 C-0.5 14.73 -0.5 18.36 -0.5 22.1 C-1.16 22.1 -1.82 22.1 -2.5 22.1 C-3.67 19.77 -3.63 18.38 -3.64 15.78 C-3.64 14.93 -3.64 14.09 -3.64 13.22 C-3.64 12.33 -3.63 11.45 -3.63 10.54 C-3.63 9.65 -3.64 8.76 -3.64 7.84 C-3.64 7 -3.64 6.15 -3.64 5.28 C-3.64 4.5 -3.63 3.73 -3.63 2.92 C-3.43 0.03 -2.91 0.11 0 0 Z " fill="#141718" transform="translate(477.50390625,229.90234375)"/>
<path d="M0 0 C0.99 0.5 0.99 0.5 2 1 C2.33 6.94 2.66 12.88 3 19 C4.61 19.12 6.22 19.25 7.88 19.38 C12.75 19.75 12.75 19.75 15 22 C13.35 23.65 11.45 23.17 9.19 23.19 C8.31 23.2 7.44 23.22 6.54 23.23 C4 23 4 23 0 21 C0 14.07 0 7.14 0 0 Z " fill="#000405" transform="translate(801,184)"/>
<path d="M0 0 C0.99 0.33 1.98 0.66 3 1 C3.95 3.07 3.95 3.07 4.69 5.56 C5.06 6.8 5.06 6.8 5.45 8.07 C5.63 8.7 5.81 9.34 6 10 C5 11 5 11 2.93 11.1 C2.11 11.09 1.29 11.07 0.44 11.06 C-0.39 11.05 -1.22 11.04 -2.07 11.04 C-2.7 11.02 -3.34 11.01 -4 11 C-3.39 6.87 -1.96 3.67 0 0 Z " fill="#D6DADB" transform="translate(618,189)"/>
<path d="M0 0 C2.48 2.2 3.61 4.06 4.69 7.19 C5.06 8.26 5.06 8.26 5.45 9.36 C5.63 9.9 5.81 10.44 6 11 C5 12 5 12 2.93 12.1 C2.11 12.09 1.29 12.07 0.44 12.06 C-0.39 12.05 -1.22 12.04 -2.07 12.04 C-2.7 12.02 -3.34 12.01 -4 12 C-2.87 7.89 -1.66 3.92 0 0 Z " fill="#D7DBDC" transform="translate(512,234)"/>
<path d="M0 0 C0.99 0.33 1.98 0.66 3 1 C1.79 1.77 1.79 1.77 0.56 2.56 C-2.71 5.68 -2.84 7.55 -3 12 C-2.7 13.34 -2.38 14.68 -2 16 C0.1 16.34 2.21 16.67 4.31 17 C5.48 17.19 6.66 17.37 7.86 17.56 C10.97 18.07 10.97 18.07 14 18 C11.53 20.47 9.51 20.69 6.09 21.03 C1.54 20.97 -1.23 18.75 -4.38 15.69 C-6.29 12.53 -6.34 10.63 -6 7 C-5.34 7 -4.68 7 -4 7 C-3.9 6.4 -3.79 5.8 -3.69 5.19 C-2.91 2.72 -1.93 1.68 0 0 Z " fill="#020607" transform="translate(715,186)"/>
<path d="M0 0 C0.66 0 1.32 0 2 0 C3.44 1.61 4.8 3.29 6.12 5 C6.85 5.93 7.57 6.86 8.32 7.81 C8.87 8.53 9.43 9.26 10 10 C9.34 10.66 8.68 11.32 8 12 C6.35 10.35 4.7 8.7 3 7 C2.67 11.95 2.34 16.9 2 22 C1.34 22 0.68 22 0 22 C0.01 20.9 0.02 19.81 0.04 18.68 C0.04 17.22 0.05 15.77 0.06 14.31 C0.07 13.59 0.08 12.87 0.09 12.13 C0.11 8.27 -0.2 4.77 -1 1 C-0.67 0.67 -0.34 0.34 0 0 Z " fill="#0E1213" transform="translate(664,230)"/>
<path d="M0 0 C0.66 0.33 1.32 0.66 2 1 C2.2 4.12 2.38 7.25 2.56 10.38 C2.62 11.26 2.67 12.15 2.73 13.07 C2.78 13.92 2.83 14.77 2.88 15.65 C2.93 16.43 2.97 17.22 3.02 18.03 C3 20 3 20 2 22 C1.34 22 0.68 22 0 22 C-0.23 19.95 -0.46 17.9 -0.68 15.85 C-0.82 13.99 -0.82 13.99 -2 13 C-3.85 12.77 -5.7 12.59 -7.56 12.44 C-8.57 12.35 -9.59 12.27 -10.63 12.18 C-11.41 12.12 -12.19 12.06 -13 12 C-13 11.67 -13 11.34 -13 11 C-6.57 10.5 -6.57 10.5 0 10 C0 6.7 0 3.4 0 0 Z " fill="#1E2122" transform="translate(761,184)"/>
<path d="M0 0 C3 3 3 3 3.34 4.9 C3.32 5.6 3.31 6.29 3.29 7.01 C3.28 7.77 3.27 8.53 3.26 9.31 C3.24 10.09 3.21 10.88 3.19 11.69 C3.17 12.48 3.16 13.28 3.15 14.1 C3.11 16.07 3.06 18.03 3 20 C2.01 20 1.02 20 0 20 C-0.27 18.89 -0.54 17.77 -0.81 16.62 C-1.66 12.78 -1.66 12.78 -5 11 C-3.35 10.67 -1.7 10.34 0 10 C0 6.7 0 3.4 0 0 Z " fill="#262829" transform="translate(474,184)"/>
<path d="M0 0 C0.99 0.33 1.98 0.66 3 1 C3 7.93 3 14.86 3 22 C2.34 22 1.68 22 1 22 C-0.2 19.6 -0.11 18.11 -0.1 15.43 C-0.09 14.53 -0.09 13.64 -0.09 12.71 C-0.08 11.78 -0.07 10.84 -0.06 9.88 C-0.06 8.93 -0.05 7.99 -0.05 7.01 C-0.04 4.67 -0.02 2.34 0 0 Z " fill="#48494A" transform="translate(781,184)"/>
<path d="M0 0 C3.36 0 5.94 0.09 8.57 2.35 C11.07 5.49 12.33 8.16 12.5 12.19 C12.01 15.89 11.6 17.4 9 20 C8.34 19.67 7.68 19.34 7 19 C7.37 18.34 7.74 17.68 8.12 17 C9.32 12.91 8.66 9.89 7 6 C4.66 3.66 1.99 2.39 -1 1 C-0.67 0.67 -0.34 0.34 0 0 Z " fill="#020607" transform="translate(840,184)"/>
<path d="M0 0 C0.66 0.33 1.32 0.66 2 1 C1.96 1.95 1.92 2.9 1.88 3.88 C1.65 7.1 1.65 7.1 4 9 C6.2 9.46 6.2 9.46 8.62 9.62 C9.85 9.74 9.85 9.74 11.1 9.85 C11.73 9.9 12.35 9.95 13 10 C13 10.33 13 10.66 13 11 C10.03 11 7.06 11 4 11 C3.34 13.97 2.68 16.94 2 20 C1.34 20 0.68 20 0 20 C-0.19 17.23 -0.38 14.46 -0.56 11.69 C-0.62 10.9 -0.67 10.12 -0.73 9.31 C-0.78 8.55 -0.83 7.79 -0.88 7.01 C-0.93 6.32 -0.97 5.62 -1.02 4.9 C-1 3 -1 3 0 0 Z " fill="#313334" transform="translate(569,230)"/>
<path d="M0 0 C0 6.93 0 13.86 0 21 C-0.66 21 -1.32 21 -2 21 C-3.15 18.7 -3.12 17.42 -3.1 14.87 C-3.09 14.06 -3.09 13.26 -3.09 12.43 C-3.08 11.58 -3.07 10.74 -3.06 9.88 C-3.06 9.03 -3.05 8.18 -3.05 7.3 C-3.04 5.2 -3.02 3.1 -3 1 C-1 0 -1 0 0 0 Z " fill="#000405" transform="translate(609,231)"/>
<path d="M0 0 C0.99 0.33 1.98 0.66 3 1 C2.51 1.35 2.01 1.7 1.5 2.07 C-2.03 4.79 -3.78 6.2 -5 10.62 C-5 13.37 -4.92 15.44 -4 18 C-3.34 18 -2.68 18 -2 18 C-2.33 18.99 -2.66 19.98 -3 21 C-7.82 17.14 -7.82 17.14 -8.33 13.89 C-8.31 11.92 -8.17 9.96 -8 8 C-7.34 8 -6.68 8 -6 8 C-5.75 7.38 -5.5 6.76 -5.25 6.12 C-3.79 3.65 -2.62 3.05 0 2 C0 1.34 0 0.68 0 0 Z " fill="#0C1011" transform="translate(632,230)"/>
<path d="M0 0 C0.33 0 0.66 0 1 0 C1.33 1.65 1.66 3.3 2 5 C6.29 5.66 10.58 6.32 15 7 C13 9 13 9 10.5 9.27 C9.05 9.26 9.05 9.26 7.56 9.25 C6.11 9.26 6.11 9.26 4.63 9.27 C2 9 2 9 -1 7 C-0.67 4.69 -0.34 2.38 0 0 Z " fill="#000405" transform="translate(528,198)"/>
<path d="M0 0 C1.06 -0.04 2.12 -0.07 3.21 -0.11 C6.19 0.31 6.19 0.31 8.53 2.1 C10.76 5.07 10.91 7.66 11.19 11.31 C10.2 10.98 9.21 10.65 8.19 10.31 C8.52 9.65 8.85 8.99 9.19 8.31 C8.86 7.98 8.53 7.65 8.19 7.31 C7.86 5.99 7.53 4.67 7.19 3.31 C3.56 2.98 -0.07 2.65 -3.81 2.31 C-4.14 3.63 -4.47 4.95 -4.81 6.31 C-4.81 4.99 -4.81 3.67 -4.81 2.31 C-5.47 1.98 -6.13 1.65 -6.81 1.31 C-5.01 -0.49 -2.43 0.06 0 0 Z " fill="#010506" transform="translate(583.8125,183.6875)"/>
<path d="M0 0 C3.52 4.11 6 7.47 6 13 C5.34 13 4.68 13 4 13 C3.55 11.87 3.09 10.73 2.62 9.56 C1.43 5.95 1.43 5.95 -1 5 C-1.66 6.65 -2.32 8.3 -3 10 C-3.33 9.34 -3.66 8.68 -4 8 C-3.37 6.32 -2.7 4.65 -2 3 C-2 2.34 -2 1.68 -2 1 C-1.34 0.67 -0.68 0.34 0 0 Z " fill="#010506" transform="translate(619,184)"/>
<path d="M0 0 C2.35 2.9 3.84 5.65 5.19 9.12 C5.53 9.99 5.88 10.86 6.23 11.76 C7 14 7 14 7 16 C6.01 15.67 5.02 15.34 4 15 C4 14.34 4 13.68 4 13 C3.01 12.67 2.02 12.34 1 12 C1.33 11.34 1.66 10.68 2 10 C1.46 7.77 1.46 7.77 0.56 5.38 C0.28 4.56 -0.01 3.74 -0.31 2.9 C-0.54 2.27 -0.76 1.65 -1 1 C-0.67 0.67 -0.34 0.34 0 0 Z " fill="#010506" transform="translate(515,234)"/>
<path d="M0 0 C2.64 0.33 5.28 0.66 8 1 C8 1.33 8 1.66 8 2 C6.02 2 4.04 2 2 2 C2 6.62 2 11.24 2 16 C1.34 16.33 0.68 16.66 0 17 C0 11.39 0 5.78 0 0 Z " fill="#1C1F20" transform="translate(831,184)"/>
<path d="M0 0 C1.73 -0.03 3.46 -0.05 5.19 -0.06 C6.15 -0.07 7.11 -0.09 8.11 -0.1 C10.86 -0 13.32 0.38 16 1 C16 1.33 16 1.66 16 2 C11.38 2.33 6.76 2.66 2 3 C1.67 4.32 1.34 5.64 1 7 C0.67 7 0.34 7 0 7 C0 4.69 0 2.38 0 0 Z " fill="#131617" transform="translate(679,184)"/>
<path d="M0 0 C1.45 -0.02 1.45 -0.02 2.93 -0.04 C5.7 0.19 7.32 0.77 9.69 2.19 C8.44 2.28 8.44 2.28 7.17 2.37 C5.54 2.5 5.54 2.5 3.88 2.62 C2.26 2.75 2.26 2.75 0.61 2.87 C-2.37 3.09 -2.37 3.09 -5.31 4.19 C-5.64 5.18 -5.97 6.17 -6.31 7.19 C-6.36 5.19 -6.35 3.19 -6.31 1.19 C-4.59 -0.53 -2.34 0.02 0 0 Z " fill="#242728" transform="translate(500.3125,183.8125)"/>
<path d="M0 0 C1.94 -0.05 3.87 -0.09 5.81 -0.12 C6.89 -0.15 7.97 -0.17 9.08 -0.2 C12 0 12 0 15 2 C9.06 2.5 9.06 2.5 3 3 C2.34 4.65 1.68 6.3 1 8 C0.67 8 0.34 8 0 8 C0 5.36 0 2.72 0 0 Z " fill="#16191A" transform="translate(527,184)"/>
<path d="M0 0 C0.33 0 0.66 0 1 0 C1 6.93 1 13.86 1 21 C-1 17 -1 17 -0.62 14.75 C-0.42 14.17 -0.21 13.59 0 13 C-2.48 12.01 -2.48 12.01 -5 11 C-4.67 10.34 -4.34 9.68 -4 9 C-3.01 9 -2.02 9 -1 9 C-0.67 6.03 -0.34 3.06 0 0 Z " fill="#040809" transform="translate(718,231)"/>
<path d="M0 0 C0.33 0 0.66 0 1 0 C1.33 5.28 1.66 10.56 2 16 C1.34 16 0.68 16 0 16 C-1.3 13.4 -1.13 11.46 -1.12 8.56 C-1.13 7.59 -1.13 6.63 -1.13 5.63 C-1 3 -1 3 0 0 Z " fill="#404142" transform="translate(475,236)"/>
<path d="M0 0 C1.28 0.1 2.56 0.21 3.88 0.31 C4.95 0.4 4.95 0.4 6.05 0.49 C8 1 8 1 10 4 C10.08 6.33 10.09 8.67 10 11 C8 10 8 10 6.69 6.5 C6.13 5.34 5.57 4.19 5 3 C2.42 1.95 2.42 1.95 0 2 C0 1.34 0 0.68 0 0 Z " fill="#020607" transform="translate(652,184)"/>
<path d="M0 0 C4.29 0.66 8.58 1.32 13 2 C9.65 4.24 9.09 4.17 5.31 3.62 C4.5 3.51 3.7 3.4 2.86 3.29 C2.25 3.19 1.63 3.1 1 3 C0.67 2.01 0.34 1.02 0 0 Z " fill="#000405" transform="translate(538,249)"/>
<path d="M0 0 C-1 3 -1 3 -3 4 C-2.67 5.65 -2.34 7.3 -2 9 C-2.66 9 -3.32 9 -4 9 C-5.01 7.68 -6.01 6.34 -7 5 C-7.99 4.34 -8.98 3.68 -10 3 C-9.24 2.88 -8.47 2.75 -7.69 2.62 C-4.74 1.94 -2.98 0 0 0 Z " fill="#0C1011" transform="translate(662,195)"/>
<path d="M0 0 C0.33 0 0.66 0 1 0 C1 3.96 1 7.92 1 12 C1.66 12 2.32 12 3 12 C3 13.98 3 15.96 3 18 C2.34 18 1.68 18 1 18 C-1.49 14.24 -1.03 11.13 -0.62 6.75 C-0.51 5.49 -0.4 4.22 -0.29 2.92 C-0.19 1.96 -0.1 0.99 0 0 Z " fill="#454647" transform="translate(433,188)"/>
<path d="M0 0 C2.64 3.13 3.84 6.09 5 10 C2 9 2 9 0 6 C-0.99 5.34 -1.98 4.68 -3 4 C-2.01 2.68 -1.02 1.36 0 0 Z " fill="#05090A" transform="translate(625,196)"/>
<path d="M0 0 C5.94 0.99 5.94 0.99 12 2 C7.82 4.79 5.85 3.8 1 3 C0.67 2.01 0.34 1.02 0 0 Z " fill="#000405" transform="translate(630,249)"/>
</svg>
